# xmcd
#
# Track frame offsets:
#	150
#	19915
#	38477
#	60630
#	83267
#	102877
#	114487
#	130877
#	146425
#	163990
#	180362
#	193805
#	218495
#	233592
#	252340
#	271545
#	286152
#
# Disc length: 4058 seconds
#
# Revision: 2
# Processed by: cddbd v1.5.1PL2 Copyright (c) Steve Scherf et al.
# Submitted via: audiograbber 1.83.01
#
DISCID=d90fd811
DTITLE=Det Bedste Af Dansk Musik - Det Bedste Af Dansk Musik 1991 - 1993 Disk 2
DYEAR=1997
DGENRE=Dansk Rock and Pop
TTITLE0=Dodo and The Dodo's - Lev Livet Nu
TTITLE1=Gnags - Lygtemandens Sang
TTITLE2=Her Personal Pain - Cinema Café
TTITLE3=Love Shop - Pia Larsen
TTITLE4=Alberte - Chevy 56
TTITLE5=Tamra Rosanes - Rub It In
TTITLE6=Innocent Blood - Ta' Mig
TTITLE7=Lagoon Cowboys - I Do U
TTITLE8=Miss B. Haven - Wheredo We Do The Thing
TTITLE9=Nikolaj and Piloterne - Kommer Nok Hjem
TTITLE10=Shirtsville - Girls Desveres The Best
TTITLE11=Shout - My Child
TTITLE12=Zapp Zapp - Heavy Pooh
TTITLE13=Jimi Bikini - Natbus
TTITLE14=Johnny Madsen - Johnny The Blues
TTITLE15=Sort Sol - Daughter Of Sad
TTITLE16=Dan Turél and Halfdan E - Pas På Pengene
EXTD=
EXTT0=
EXTT1=
EXTT2=
EXTT3=
EXTT4=
EXTT5=
EXTT6=
EXTT7=
EXTT8=
EXTT9=
EXTT10=
EXTT11=
EXTT12=
EXTT13=
EXTT14=
EXTT15=
EXTT16=
PLAYORDER=
